<svg width="48" height="48" viewBox="0 0 48 48" fill="none" xmlns="http://www.w3.org/2000/svg">
  <defs>
    <linearGradient id="logoGrad" x1="0" y1="0" x2="48" y2="48" gradientUnits="userSpaceOnUse">
      <stop offset="0%" stop-color="#C0392B"/>
      <stop offset="100%" stop-color="#7B0D0D"/>
    </linearGradient>
    <radialGradient id="drumFace" cx="24" cy="22" r="14" gradientUnits="userSpaceOnUse">
      <stop offset="0%" stop-color="#F5DEB3" stop-opacity="0.9"/>
      <stop offset="80%" stop-color="#D2B48C" stop-opacity="0.7"/>
      <stop offset="100%" stop-color="#8B7355" stop-opacity="0.5"/>
    </radialGradient>
  </defs>
  <!-- 外圈 -->
  <circle cx="24" cy="24" r="22" fill="url(#logoGrad)" stroke="#FFD700" stroke-width="1"/>
  <circle cx="24" cy="24" r="19.5" fill="none" stroke="#FFD700" stroke-width="0.4" stroke-dasharray="2.5 1.8" opacity="0.6"/>
  <!-- 祥云装饰 -->
  <path d="M24 3.5 Q26 5.5 24 6.5 Q22 5.5 24 3.5Z" fill="#FFD700" opacity="0.7"/>
  <path d="M24 44.5 Q26 42.5 24 41.5 Q22 42.5 24 44.5Z" fill="#FFD700" opacity="0.7"/>
  <path d="M3.5 24 Q5.5 22 6.5 24 Q5.5 26 3.5 24Z" fill="#FFD700" opacity="0.7"/>
  <path d="M44.5 24 Q42.5 22 41.5 24 Q42.5 26 44.5 24Z" fill="#FFD700" opacity="0.7"/>
  <!-- 鼓面 -->
  <ellipse cx="24" cy="22" rx="13" ry="11" fill="url(#drumFace)" stroke="#FFD700" stroke-width="0.8"/>
  <!-- 鼓钉环 -->
  <circle cx="36" cy="22" r="1" fill="#FFD700" opacity="0.8"/>
  <circle cx="34.39" cy="27" r="1" fill="#FFD700" opacity="0.8"/>
  <circle cx="30" cy="30.66" r="1" fill="#FFD700" opacity="0.8"/>
  <circle cx="24" cy="32" r="1" fill="#FFD700" opacity="0.8"/>
  <circle cx="18" cy="30.66" r="1" fill="#FFD700" opacity="0.8"/>
  <circle cx="13.61" cy="27" r="1" fill="#FFD700" opacity="0.8"/>
  <circle cx="12" cy="22" r="1" fill="#FFD700" opacity="0.8"/>
  <circle cx="13.61" cy="17" r="1" fill="#FFD700" opacity="0.8"/>
  <circle cx="18" cy="13.34" r="1" fill="#FFD700" opacity="0.8"/>
  <circle cx="24" cy="12" r="1" fill="#FFD700" opacity="0.8"/>
  <circle cx="30" cy="13.34" r="1" fill="#FFD700" opacity="0.8"/>
  <circle cx="34.39" cy="17" r="1" fill="#FFD700" opacity="0.8"/>
  <!-- 鼓面中心纹样 -->
  <path d="M21 19 Q24 16 27 19 Q24 22 21 19Z" fill="none" stroke="#8B4513" stroke-width="0.6" opacity="0.5"/>
  <path d="M21 25 Q24 28 27 25 Q24 22 21 25Z" fill="none" stroke="#8B4513" stroke-width="0.6" opacity="0.5"/>
  <circle cx="24" cy="22" r="1.5" fill="none" stroke="#8B4513" stroke-width="0.5" opacity="0.4"/>
  <!-- 鼓槌 -->
  <line x1="15" y1="34" x2="22" y2="26" stroke="#FFD700" stroke-width="1.8" stroke-linecap="round"/>
  <circle cx="14.2" cy="35" r="2.2" fill="#FFD700" opacity="0.8"/>
  <line x1="33" y1="34" x2="26" y2="26" stroke="#FFD700" stroke-width="1.8" stroke-linecap="round"/>
  <circle cx="33.8" cy="35" r="2.2" fill="#FFD700" opacity="0.8"/>
  <!-- 竹板 -->
  <rect x="36" y="12" width="3" height="12" rx="1.2" fill="#FFD700" opacity="0.5" transform="rotate(10 37.5 18)"/>
  <rect x="39" y="11" width="3" height="12" rx="1.2" fill="#FFD700" opacity="0.4" transform="rotate(15 40.5 17)"/>
</svg>
